<mxfile host="app.diagrams.net" agent="Mozilla/5.0 (Windows NT 10.0; Win64; x64) AppleWebKit/537.36 (KHTML, like Gecko) Chrome/131.0.0.0 Safari/537.36 Edg/131.0.0.0" version="26.0.2">
  <diagram name="Halaman-1" id="vwSdffozP3ruCurOzqi_">
    <mxGraphModel dx="1042" dy="565" grid="1" gridSize="10" guides="1" tooltips="1" connect="1" arrows="1" fold="1" page="1" pageScale="1" pageWidth="827" pageHeight="1169" math="0" shadow="0">
      <root>
        <mxCell id="0" />
        <mxCell id="1" parent="0" />
        <mxCell id="74l9jDjBkosmm1mLX74p-7" value="" style="edgeStyle=orthogonalEdgeStyle;rounded=0;orthogonalLoop=1;jettySize=auto;html=1;" parent="1" source="74l9jDjBkosmm1mLX74p-5" target="74l9jDjBkosmm1mLX74p-6" edge="1">
          <mxGeometry relative="1" as="geometry" />
        </mxCell>
        <mxCell id="74l9jDjBkosmm1mLX74p-6" value="Docker Image" style="whiteSpace=wrap;html=1;rounded=0;" parent="1" vertex="1">
          <mxGeometry x="410" y="242" width="120" height="60" as="geometry" />
        </mxCell>
        <mxCell id="74l9jDjBkosmm1mLX74p-8" value="Dockerisasi" style="text;html=1;align=center;verticalAlign=middle;whiteSpace=wrap;rounded=0;" parent="1" vertex="1">
          <mxGeometry x="300" y="245" width="90" height="30" as="geometry" />
        </mxCell>
        <mxCell id="3BprgjV5kW8AoCkszXDx-14" style="edgeStyle=orthogonalEdgeStyle;rounded=0;orthogonalLoop=1;jettySize=auto;html=1;entryX=1;entryY=0.5;entryDx=0;entryDy=0;" edge="1" parent="1" source="74l9jDjBkosmm1mLX74p-9">
          <mxGeometry relative="1" as="geometry">
            <mxPoint x="530" y="380" as="targetPoint" />
            <Array as="points">
              <mxPoint x="760" y="380" />
            </Array>
          </mxGeometry>
        </mxCell>
        <mxCell id="74l9jDjBkosmm1mLX74p-9" value="" style="whiteSpace=wrap;html=1;rounded=0;" parent="1" vertex="1">
          <mxGeometry x="660" y="219.5" width="210" height="105" as="geometry" />
        </mxCell>
        <mxCell id="4SFuYgp9RWACPNS-6sx8-2" value="&lt;span style=&quot;color: rgb(0, 0, 0); font-family: Helvetica; font-size: 12px; font-style: normal; font-variant-ligatures: normal; font-variant-caps: normal; font-weight: 400; letter-spacing: normal; orphans: 2; text-indent: 0px; text-transform: none; widows: 2; word-spacing: 0px; -webkit-text-stroke-width: 0px; white-space: normal; background-color: rgb(251, 251, 251); text-decoration-thickness: initial; text-decoration-style: initial; text-decoration-color: initial; float: none; display: inline !important;&quot;&gt;Google Cloud Run&lt;/span&gt;" style="text;whiteSpace=wrap;html=1;align=center;" parent="1" vertex="1">
          <mxGeometry x="760" y="195.5" width="110" height="30" as="geometry" />
        </mxCell>
        <mxCell id="4SFuYgp9RWACPNS-6sx8-11" value="User" style="sketch=0;outlineConnect=0;fontColor=#232F3E;gradientColor=none;strokeColor=#232F3E;fillColor=#ffffff;dashed=0;verticalLabelPosition=bottom;verticalAlign=top;align=center;html=1;fontSize=12;fontStyle=0;aspect=fixed;shape=mxgraph.aws4.resourceIcon;resIcon=mxgraph.aws4.user;" parent="1" vertex="1">
          <mxGeometry x="440" y="570" width="60" height="60" as="geometry" />
        </mxCell>
        <mxCell id="4SFuYgp9RWACPNS-6sx8-19" value="" style="edgeStyle=orthogonalEdgeStyle;rounded=0;orthogonalLoop=1;jettySize=auto;html=1;" parent="1" source="4SFuYgp9RWACPNS-6sx8-12" target="4SFuYgp9RWACPNS-6sx8-11" edge="1">
          <mxGeometry relative="1" as="geometry" />
        </mxCell>
        <mxCell id="4SFuYgp9RWACPNS-6sx8-12" value="Sistem Deteksi Kantuk di Github Pages" style="whiteSpace=wrap;html=1;rounded=0;" parent="1" vertex="1">
          <mxGeometry x="410" y="470" width="120" height="60" as="geometry" />
        </mxCell>
        <mxCell id="4SFuYgp9RWACPNS-6sx8-14" value="" style="rounded=0;orthogonalLoop=1;jettySize=auto;html=1;entryX=0.653;entryY=1.033;entryDx=0;entryDy=0;entryPerimeter=0;exitX=0.416;exitY=-0.024;exitDx=0;exitDy=0;exitPerimeter=0;" parent="1" edge="1">
          <mxGeometry relative="1" as="geometry">
            <mxPoint x="459.91999999999996" y="469.55999999999995" as="sourcePoint" />
            <mxPoint x="459.9999999999999" y="411" as="targetPoint" />
          </mxGeometry>
        </mxCell>
        <mxCell id="4SFuYgp9RWACPNS-6sx8-15" value="" style="group" parent="1" vertex="1" connectable="0">
          <mxGeometry x="70" y="97" width="210" height="350" as="geometry" />
        </mxCell>
        <mxCell id="74l9jDjBkosmm1mLX74p-5" value="" style="rounded=0;whiteSpace=wrap;html=1;" parent="4SFuYgp9RWACPNS-6sx8-15" vertex="1">
          <mxGeometry width="210" height="350" as="geometry" />
        </mxCell>
        <mxCell id="74l9jDjBkosmm1mLX74p-1" value="Aplikasi Deteksi&lt;div&gt;(.py)&lt;/div&gt;" style="strokeWidth=2;html=1;shape=mxgraph.flowchart.document2;whiteSpace=wrap;size=0.1600001017252604;" parent="4SFuYgp9RWACPNS-6sx8-15" vertex="1">
          <mxGeometry x="55" y="55" width="100" height="60" as="geometry" />
        </mxCell>
        <mxCell id="74l9jDjBkosmm1mLX74p-2" value="Haar Cascade&amp;nbsp;&lt;div&gt;Frontal Face&amp;nbsp;&lt;/div&gt;&lt;div&gt;Alt 2&lt;/div&gt;" style="strokeWidth=2;html=1;shape=mxgraph.flowchart.document2;whiteSpace=wrap;size=0.13999888102213542;" parent="4SFuYgp9RWACPNS-6sx8-15" vertex="1">
          <mxGeometry x="55" y="145" width="100" height="60" as="geometry" />
        </mxCell>
        <mxCell id="74l9jDjBkosmm1mLX74p-4" value="&lt;div&gt;Shape Predictor 68 Face Landmark&lt;/div&gt;" style="strokeWidth=2;html=1;shape=mxgraph.flowchart.document2;whiteSpace=wrap;size=0.13999888102213542;" parent="4SFuYgp9RWACPNS-6sx8-15" vertex="1">
          <mxGeometry x="55" y="235" width="100" height="60" as="geometry" />
        </mxCell>
        <mxCell id="4SFuYgp9RWACPNS-6sx8-16" value="Pendeteksian Kantuk" style="text;html=1;align=center;verticalAlign=middle;whiteSpace=wrap;rounded=0;" parent="1" vertex="1">
          <mxGeometry x="360" y="422" width="90" height="30" as="geometry" />
        </mxCell>
        <mxCell id="4SFuYgp9RWACPNS-6sx8-17" value="Output Hasil Deteksi Kantuk" style="text;html=1;align=center;verticalAlign=middle;whiteSpace=wrap;rounded=0;" parent="1" vertex="1">
          <mxGeometry x="490" y="422" width="90" height="30" as="geometry" />
        </mxCell>
        <mxCell id="4SFuYgp9RWACPNS-6sx8-18" value="" style="rounded=0;orthogonalLoop=1;jettySize=auto;html=1;exitX=0.613;exitY=0.983;exitDx=0;exitDy=0;exitPerimeter=0;" parent="1" edge="1">
          <mxGeometry relative="1" as="geometry">
            <mxPoint x="483.56000000000006" y="409.98" as="sourcePoint" />
            <mxPoint x="484" y="470" as="targetPoint" />
          </mxGeometry>
        </mxCell>
        <mxCell id="8aoCe7PxnQ_ZfpSEJY85-1" value="&lt;span style=&quot;color: rgb(0, 0, 0); font-family: Helvetica; font-size: 12px; font-style: normal; font-variant-ligatures: normal; font-variant-caps: normal; font-weight: 400; letter-spacing: normal; orphans: 2; text-align: center; text-indent: 0px; text-transform: none; widows: 2; word-spacing: 0px; -webkit-text-stroke-width: 0px; white-space: normal; background-color: rgb(251, 251, 251); text-decoration-thickness: initial; text-decoration-style: initial; text-decoration-color: initial; float: none; display: inline !important;&quot;&gt;Komponen Aplikasi&lt;/span&gt;" style="text;whiteSpace=wrap;html=1;" parent="1" vertex="1">
          <mxGeometry x="120" y="446" width="110" height="20" as="geometry" />
        </mxCell>
        <mxCell id="3BprgjV5kW8AoCkszXDx-1" value="Artifact Registry" style="whiteSpace=wrap;html=1;rounded=0;" vertex="1" parent="1">
          <mxGeometry x="705" y="242" width="120" height="60" as="geometry" />
        </mxCell>
        <mxCell id="3BprgjV5kW8AoCkszXDx-11" value="" style="edgeStyle=orthogonalEdgeStyle;rounded=0;orthogonalLoop=1;jettySize=auto;html=1;" edge="1" parent="1" source="74l9jDjBkosmm1mLX74p-6" target="3BprgjV5kW8AoCkszXDx-1">
          <mxGeometry relative="1" as="geometry">
            <mxPoint x="700" y="275" as="targetPoint" />
          </mxGeometry>
        </mxCell>
        <mxCell id="3BprgjV5kW8AoCkszXDx-15" value="Unggah" style="text;html=1;align=center;verticalAlign=middle;whiteSpace=wrap;rounded=0;" vertex="1" parent="1">
          <mxGeometry x="555" y="245" width="90" height="30" as="geometry" />
        </mxCell>
        <mxCell id="3BprgjV5kW8AoCkszXDx-16" value="&lt;i&gt;Running&lt;/i&gt;" style="text;html=1;align=center;verticalAlign=middle;whiteSpace=wrap;rounded=0;" vertex="1" parent="1">
          <mxGeometry x="610" y="354" width="90" height="30" as="geometry" />
        </mxCell>
        <mxCell id="3BprgjV5kW8AoCkszXDx-17" value="API Deteksi&amp;nbsp;&lt;div&gt;Kantuk&lt;/div&gt;" style="ellipse;shape=cloud;whiteSpace=wrap;html=1;" vertex="1" parent="1">
          <mxGeometry x="410" y="330" width="120" height="80" as="geometry" />
        </mxCell>
      </root>
    </mxGraphModel>
  </diagram>
</mxfile>
